<svg xmlns="http://www.w3.org/2000/svg" xmlns:xlink="http://www.w3.org/1999/xlink" version="1.1" width="256" height="256" viewBox="0 0 256 256" xml:space="preserve">

<defs>
</defs>
<g style="stroke: none; stroke-width: 0; stroke-dasharray: none; stroke-linecap: butt; stroke-linejoin: miter; stroke-miterlimit: 10; fill: none; fill-rule: nonzero; opacity: 1;" transform="translate(1.4065934065934016 1.4065934065934016) scale(2.81 2.81)" >
	<path d="M 77.678 19.937 H 62.55 c -2.101 0 -3.81 -1.709 -3.81 -3.809 V 1 h 2 v 15.128 c 0 0.998 0.812 1.809 1.81 1.809 h 15.128 V 19.937 z" style="stroke: none; stroke-width: 1; stroke-dasharray: none; stroke-linecap: butt; stroke-linejoin: miter; stroke-miterlimit: 10; fill: rgb(255,255,255); fill-rule: nonzero; opacity: 1;" transform=" matrix(1 0 0 1 0 0) " stroke-linecap="round" />
	<path d="M 74.595 90 H 15.405 c -2.251 0 -4.083 -1.832 -4.083 -4.083 V 4.083 C 11.322 1.832 13.154 0 15.405 0 h 43.059 c 1.091 0 2.115 0.425 2.887 1.196 l 16.131 16.131 c 0.771 0.771 1.196 1.796 1.196 2.887 v 65.703 C 78.678 88.168 76.846 90 74.595 90 z M 15.405 2 c -1.148 0 -2.083 0.935 -2.083 2.083 v 81.834 c 0 1.148 0.935 2.083 2.083 2.083 h 59.189 c 1.148 0 2.083 -0.935 2.083 -2.083 V 20.214 c 0 -0.548 -0.223 -1.084 -0.61 -1.473 L 59.937 2.61 C 59.543 2.217 59.021 2 58.464 2 H 15.405 z" style="stroke: none; stroke-width: 1; stroke-dasharray: none; stroke-linecap: butt; stroke-linejoin: miter; stroke-miterlimit: 10; fill: rgb(255,255,255); fill-rule: nonzero; opacity: 1;" transform=" matrix(1 0 0 1 0 0) " stroke-linecap="round" />
	<path d="M 45 60.318 c -2.893 0 -5.247 -2.354 -5.247 -5.247 V 27.929 c 0 -2.893 2.354 -5.247 5.247 -5.247 c 2.894 0 5.247 2.354 5.247 5.247 v 27.143 C 50.247 57.965 47.894 60.318 45 60.318 z M 45 24.682 c -1.791 0 -3.247 1.457 -3.247 3.247 v 27.143 c 0 1.79 1.457 3.247 3.247 3.247 c 1.79 0 3.247 -1.457 3.247 -3.247 V 27.929 C 48.247 26.139 46.79 24.682 45 24.682 z" style="stroke: none; stroke-width: 1; stroke-dasharray: none; stroke-linecap: butt; stroke-linejoin: miter; stroke-miterlimit: 10; fill: rgb(255,255,255); fill-rule: nonzero; opacity: 1;" transform=" matrix(1 0 0 1 0 0) " stroke-linecap="round" />
	<path d="M 45 75.318 c -2.893 0 -5.247 -2.354 -5.247 -5.247 s 2.354 -5.247 5.247 -5.247 c 2.894 0 5.247 2.354 5.247 5.247 S 47.894 75.318 45 75.318 z M 45 66.824 c -1.791 0 -3.247 1.457 -3.247 3.247 s 1.457 3.247 3.247 3.247 c 1.79 0 3.247 -1.457 3.247 -3.247 S 46.79 66.824 45 66.824 z" style="stroke: none; stroke-width: 1; stroke-dasharray: none; stroke-linecap: butt; stroke-linejoin: miter; stroke-miterlimit: 10; fill: rgb(255,255,255); fill-rule: nonzero; opacity: 1;" transform=" matrix(1 0 0 1 0 0) " stroke-linecap="round" />
</g>
</svg>