<?xml version="1.0" standalone="no"?>
<!DOCTYPE svg PUBLIC "-//W3C//DTD SVG 20010904//EN"
 "http://www.w3.org/TR/2001/REC-SVG-20010904/DTD/svg10.dtd">
<svg version="1.0" xmlns="http://www.w3.org/2000/svg"
 width="500.000000pt" height="500.000000pt" viewBox="0 0 500.000000 500.000000"
 preserveAspectRatio="xMidYMid meet">
<metadata>
Created by potrace 1.14, written by Peter Selinger 2001-2017
</metadata>
<g transform="translate(0.000000,500.000000) scale(0.100000,-0.100000)"
fill="#000000" stroke="none">
<path d="M2305 4136 c-36 -15 -83 -68 -90 -99 -2 -12 -6 -149 -7 -304 l-3
-281 -30 -44 c-18 -25 -49 -52 -75 -65 -43 -22 -54 -23 -323 -23 -263 0 -281
-1 -316 -21 -20 -11 -48 -36 -61 -56 -25 -36 -25 -40 -25 -237 0 -190 1 -203
22 -236 12 -20 39 -45 60 -57 35 -19 59 -21 331 -27 300 -6 314 -8 360 -50 55
-49 57 -59 62 -378 6 -331 4 -324 81 -376 33 -23 39 -23 239 -20 196 3 206 4
238 26 65 47 66 56 72 382 3 202 9 302 17 316 7 11 30 37 53 57 38 35 44 37
113 38 39 1 179 4 309 8 268 7 273 8 316 91 20 41 22 57 22 225 0 204 -10 242
-71 286 -34 24 -37 24 -335 29 -297 5 -301 5 -336 29 -19 13 -46 40 -59 59
-24 35 -24 39 -29 331 -6 339 -8 347 -90 389 -41 20 -57 22 -230 22 -131 -1
-194 -5 -215 -14z"/>
<path d="M3114 1573 l-50 -4 0 -209 1 -210 69 0 68 0 -4 60 -4 60 41 0 c54 0
124 36 152 79 17 25 23 49 23 90 0 64 -15 93 -61 116 -31 16 -149 26 -235 18z
m144 -105 c7 -7 12 -26 12 -43 0 -37 -16 -55 -47 -55 -21 0 -23 4 -23 55 0 51
2 55 23 55 13 0 28 -5 35 -12z"/>
<path d="M1633 1360 l2 -210 66 0 66 0 -5 75 -5 75 68 0 67 0 -4 -75 -3 -75
65 0 66 0 2 210 2 210 -68 0 -67 0 3 -74 3 -73 -33 -6 c-19 -3 -46 -3 -61 0
-26 5 -27 7 -27 79 l0 74 -69 0 -70 0 2 -210z"/>
<path d="M2200 1360 l0 -210 150 0 150 0 2 35 c1 19 2 43 2 53 1 15 -8 17 -86
13 l-88 -3 0 31 0 31 65 0 64 0 6 34 c13 65 7 71 -68 74 -64 3 -67 4 -67 27 0
25 1 25 84 25 92 0 96 3 96 66 l0 34 -155 0 -155 0 0 -210z"/>
<path d="M2660 1360 l0 -210 124 0 125 0 6 44 c4 25 4 49 0 55 -3 6 -33 11
-66 11 l-59 0 0 155 0 155 -65 0 -65 0 0 -210z"/>
<path d="M2167 853 c-4 -3 -7 -44 -7 -90 0 -82 0 -83 25 -83 23 0 25 4 25 43
l1 42 25 -42 c21 -35 32 -43 55 -43 l29 0 0 90 c0 50 -4 90 -9 90 -29 0 -41
-14 -41 -49 l0 -36 -26 43 c-18 30 -32 42 -48 42 -12 0 -26 -3 -29 -7z"/>
<path d="M2433 850 c-29 -12 -43 -40 -43 -89 0 -54 26 -81 79 -81 60 0 86 27
86 90 0 42 -4 55 -24 71 -25 20 -62 24 -98 9z m63 -64 c9 -37 1 -61 -21 -61
-16 0 -21 8 -23 43 -3 37 -1 42 17 42 13 0 23 -9 27 -24z"/>
<path d="M2610 853 c1 -10 18 -87 31 -135 8 -33 14 -38 39 -38 22 0 30 6 37
27 l10 28 7 -28 c6 -25 11 -28 39 -25 30 3 32 6 53 78 29 96 29 102 2 98 -17
-2 -26 -15 -38 -58 l-16 -55 -13 58 c-11 50 -15 57 -37 57 -20 0 -24 -5 -25
-32 -1 -18 -4 -44 -8 -58 -7 -23 -8 -22 -15 15 -12 68 -16 75 -42 75 -13 0
-24 -3 -24 -7z"/>
</g>
</svg>
